<svg width="142.936798" height="30.140625" viewBox="0 0 142.937 30.1406" fill="none" xmlns="http://www.w3.org/2000/svg" xmlns:xlink="http://www.w3.org/1999/xlink">
	<desc>
			Created with Pixso.
	</desc>
	<defs/>
	<path id="Logo" d="M10.46 0C15.39 0 19.28 2.91 20.07 7.89L16.53 7.89C15.95 4.87 13.46 3.21 10.5 3.21C6.49 3.21 3.49 6.31 3.49 11.96C3.49 17.64 6.5 20.71 10.49 20.71C13.43 20.71 15.93 19.07 16.53 16.09L20.07 16.1C19.32 20.71 15.57 23.91 10.46 23.91C4.42 23.91 0 19.39 0 11.96C0 4.51 4.44 0 10.46 0ZM39.5 14.94C39.5 20.34 36.28 23.94 31.36 23.94C26.44 23.94 23.22 20.34 23.22 14.94C23.22 9.51 26.44 5.91 31.36 5.91C36.28 5.91 39.5 9.51 39.5 14.94ZM46.68 23.59L43.28 23.59L43.28 6.14L46.54 6.14L46.54 8.97L46.75 8.97C47.49 7.06 49.2 5.91 51.5 5.91C53.84 5.91 55.44 7.07 56.2 8.97L56.38 8.97C57.22 7.11 59.11 5.91 61.62 5.91C64.78 5.91 67 7.89 67 11.89L67 23.59L63.61 23.59L63.61 12.21C63.61 9.84 62.13 8.84 60.34 8.84C58.12 8.84 56.84 10.36 56.84 12.46L56.84 23.59L53.45 23.59L53.45 11.99C53.45 10.09 52.15 8.84 50.25 8.84C48.33 8.84 46.68 10.47 46.68 12.83L46.68 23.59ZM74.95 30.14L71.55 30.14L71.55 6.14L74.87 6.14L74.87 8.96L75.15 8.96C75.76 7.89 76.93 5.91 80.17 5.91C84.39 5.91 87.5 9.24 87.5 14.89C87.5 20.54 84.43 23.93 80.2 23.93C77.02 23.93 75.77 21.99 75.15 20.87L74.95 20.87L74.95 30.14ZM101.54 21.21C100.9 22.51 99.27 23.97 96.39 23.97C93.07 23.97 90.49 22.09 90.49 18.66C90.49 14.69 93.87 13.83 97.18 13.44C100.32 13.08 101.59 13.1 101.59 11.86L101.59 11.78C101.59 9.81 100.47 8.66 98.27 8.66C95.99 8.66 94.72 9.85 94.22 11.09L91.02 10.36C92.15 7.18 95.07 5.91 98.22 5.91C101 5.91 105 6.92 105 12L105 23.59L101.68 23.59L101.68 21.21L101.54 21.21ZM116.99 8.85C114.62 8.85 112.92 10.44 112.92 13.22L112.92 23.59L109.52 23.59L109.52 6.14L112.78 6.14L112.78 8.97L112.99 8.97C113.81 7.12 115.52 5.91 118.14 5.91C121.71 5.91 124.09 8.17 124.09 12.49L124.09 23.59L120.69 23.59L120.69 12.89C120.69 10.36 119.29 8.85 116.99 8.85ZM135.74 25.92C134.72 28.67 132.96 30.14 130.14 30.14C129.12 30.14 128.24 29.94 127.83 29.76L128.64 26.97C130.51 27.49 131.72 27.29 132.59 24.97L133.01 23.82L126.62 6.14L130.26 6.14L134.68 19.68L134.86 19.68L139.28 6.14L142.93 6.14L135.74 25.92ZM26.65 14.93C26.65 18.28 28.15 21.09 31.37 21.09C34.57 21.09 36.07 18.28 36.07 14.93C36.07 11.59 34.57 8.75 31.37 8.75C28.15 8.75 26.65 11.59 26.65 14.93ZM79.44 8.79C76.47 8.79 74.89 11.21 74.89 14.86C74.89 18.53 76.52 21.03 79.44 21.03C82.47 21.03 84.07 18.36 84.07 14.86C84.07 11.39 82.52 8.79 79.44 8.79ZM93.82 18.71C93.82 20.39 95.2 21.25 97.12 21.25C99.95 21.25 101.6 19.36 101.6 17.29L101.6 15.04C101.11 15.53 98.5 15.83 97.39 15.97C95.43 16.24 93.82 16.89 93.82 18.71Z" fill="#FFFFFF" fill-opacity="1.000000" fill-rule="evenodd"/>
</svg>
